<svg width="289" height="297" viewBox="0 0 289 297" fill="none" xmlns="http://www.w3.org/2000/svg">
<g clip-path="url(#clip0_231_1134)">
<path d="M265.06 254.093L251.822 266.116L262.343 248.701C254.054 233.873 240.498 221.058 240.498 221.058C240.498 221.058 212.375 247.639 212.375 268.534C212.375 289.429 224.966 296.725 240.498 296.725C256.03 296.725 268.622 289.429 268.622 268.534C268.622 263.884 267.226 258.951 265.06 254.093Z" fill="#F2F2F2"/>
<path d="M248.418 266.767V267.796C248.356 279.768 246.309 289.109 242.293 295.686C242.236 295.783 242.174 295.875 242.118 295.972L241.668 295.702L241.239 295.437C245.694 288.334 247.27 278.295 247.327 267.853C247.332 267.516 247.338 267.174 247.332 266.833C247.317 262.412 247.043 257.941 246.604 253.597C246.573 253.26 246.537 252.918 246.5 252.577C245.891 246.846 245.012 241.37 244.113 236.613C244.051 236.276 243.983 235.94 243.916 235.608C242.361 227.563 240.774 221.735 240.412 220.445C240.371 220.287 240.345 220.2 240.34 220.18L240.831 220.042L240.836 220.037L241.332 219.899C241.337 219.92 241.425 220.21 241.57 220.751C242.123 222.77 243.56 228.251 244.971 235.481C245.033 235.807 245.1 236.144 245.162 236.48C245.896 240.34 246.614 244.653 247.183 249.181C247.327 250.318 247.457 251.44 247.57 252.546C247.612 252.888 247.648 253.229 247.679 253.566C248.154 258.262 248.401 262.662 248.418 266.767Z" fill="white"/>
<path d="M244.971 235.481C244.624 235.527 244.273 235.573 243.916 235.608C242.948 235.707 241.975 235.756 241.001 235.756C236.852 235.762 232.755 234.849 229.011 233.084C228.794 233.355 228.577 233.625 228.354 233.9C232.293 235.797 236.619 236.78 241.001 236.776C242.041 236.776 243.079 236.721 244.113 236.613C244.464 236.577 244.816 236.531 245.162 236.48C248.02 236.076 250.8 235.245 253.405 234.018C253.183 233.737 252.966 233.462 252.754 233.192C250.288 234.329 247.665 235.1 244.971 235.481Z" fill="white"/>
<path d="M247.57 252.546C247.214 252.567 246.857 252.577 246.5 252.577C246.392 252.582 246.278 252.582 246.17 252.582C241.674 252.582 237.245 251.51 233.26 249.456C229.275 247.403 225.852 244.429 223.284 240.789C223.077 241.089 222.871 241.39 222.669 241.696C225.346 245.38 228.874 248.381 232.961 250.451C237.048 252.522 241.575 253.602 246.17 253.602C246.314 253.602 246.459 253.602 246.604 253.597C246.965 253.591 247.322 253.581 247.679 253.566C253.197 253.287 258.517 251.446 263.003 248.263C262.837 247.963 262.672 247.662 262.501 247.361C258.142 250.486 252.953 252.288 247.57 252.546Z" fill="white"/>
<path d="M248.418 266.767C248.056 266.797 247.694 266.818 247.332 266.833C246.945 266.848 246.557 266.858 246.17 266.858C240.128 266.851 234.252 264.914 229.42 261.337C224.588 257.76 221.061 252.735 219.367 247.014C219.134 247.427 218.901 247.835 218.679 248.248C220.589 253.955 224.272 258.924 229.207 262.448C234.142 265.972 240.077 267.872 246.17 267.878C246.557 267.878 246.945 267.873 247.327 267.853C247.694 267.842 248.056 267.822 248.418 267.796C255.725 267.232 262.542 263.95 267.489 258.614C267.38 258.236 267.256 257.864 267.132 257.487C262.355 262.863 255.642 266.192 248.418 266.767Z" fill="white"/>
<path d="M217.456 64.2177L73.4722 46.1082C73.0843 46.0591 72.6937 46.0341 72.3026 46.0333C71.9172 46.0327 71.5321 46.0566 71.1498 46.1051C70.7682 46.1535 70.3901 46.2265 70.0182 46.3236C69.6418 46.4227 69.2723 46.5458 68.912 46.6919C68.559 46.8348 68.2152 46.9988 67.8824 47.1829C67.545 47.3683 67.2191 47.5733 66.9062 47.7966C66.5862 48.0258 66.2796 48.2728 65.9879 48.5362C65.6868 48.8073 65.4006 49.0942 65.1306 49.3955C64.8535 49.7058 64.5927 50.0298 64.3492 50.3664C64.1033 50.7073 63.8725 51.0618 63.6568 51.4301C63.4411 51.7996 63.241 52.1838 63.0564 52.5827C62.8719 52.9817 62.7035 53.3941 62.5513 53.82C62.3937 54.2603 62.2555 54.7104 62.1369 55.1703C62.0183 55.6302 61.9192 56.0981 61.8395 56.574C61.7616 57.0494 61.7018 57.5327 61.6604 58.0237C61.6189 58.5147 61.5981 59.0116 61.5981 59.5145C61.5998 60.017 61.6205 60.5178 61.6604 61.017C61.7002 61.5162 61.7599 62.0113 61.8395 62.5023C61.92 62.9953 62.0195 63.4835 62.1381 63.9667C62.2568 64.4499 62.3949 64.9276 62.5525 65.3998C62.7047 65.856 62.8731 66.3018 63.0577 66.7372C63.2422 67.173 63.4424 67.5969 63.658 68.0089C63.8737 68.4209 64.1045 68.8211 64.3505 69.2094C64.596 69.5994 64.8565 69.9746 65.1319 70.335C65.4073 70.6955 65.693 71.0394 65.9892 71.3668C66.2853 71.6921 66.5914 71.999 66.9075 72.2874C67.2235 72.5759 67.5489 72.8453 67.8836 73.0957C68.2146 73.3436 68.5583 73.5747 68.9132 73.788C69.2706 74.0032 69.6399 74.1984 70.0194 74.373C70.3875 74.5422 70.7654 74.6899 71.1511 74.8155C71.5288 74.9385 71.9138 75.0387 72.3039 75.1156C72.6901 75.1915 73.0807 75.2438 73.4735 75.2721L217.457 85.6624C217.876 85.6924 218.297 85.6509 218.702 85.5396C218.907 85.4831 219.108 85.41 219.302 85.3211C219.504 85.2283 219.699 85.1206 219.885 84.9989C220.073 84.8756 220.253 84.7403 220.424 84.5938C220.602 84.4401 220.772 84.2762 220.931 84.1028C221.1 83.9196 221.258 83.7279 221.406 83.5283C221.559 83.3229 221.706 83.104 221.847 82.8716C221.988 82.6392 222.121 82.3968 222.247 82.1443C222.373 81.8918 222.49 81.6296 222.6 81.3575C222.71 81.0858 222.811 80.8047 222.905 80.5142C222.998 80.2236 223.083 79.9246 223.16 79.6169C223.241 79.2985 223.31 78.9745 223.369 78.6447C223.427 78.3149 223.477 77.9802 223.519 77.6406C223.559 77.3009 223.589 76.9568 223.609 76.6082C223.629 76.2596 223.639 75.9071 223.639 75.5507C223.638 75.1947 223.628 74.8404 223.609 74.4877C223.59 74.135 223.56 73.7849 223.519 73.4375C223.479 73.0902 223.429 72.7456 223.369 72.404C223.309 72.0623 223.239 71.7244 223.16 71.3901C223.083 71.0668 222.998 70.7509 222.905 70.4424C222.812 70.138 222.711 69.8381 222.6 69.5427C222.489 69.2472 222.371 68.9608 222.247 68.6834C222.122 68.4064 221.988 68.1376 221.847 67.8769C221.706 67.6163 221.559 67.3683 221.406 67.133C221.253 66.8977 221.095 66.6747 220.931 66.464C220.767 66.2533 220.598 66.0561 220.424 65.8724C220.253 65.6923 220.074 65.5215 219.885 65.3605C219.7 65.2028 219.505 65.0566 219.302 64.9229C219.11 64.7966 218.909 64.6838 218.702 64.5853C218.503 64.4912 218.297 64.4124 218.086 64.3496C217.88 64.2887 217.669 64.2446 217.456 64.2177" fill="#59746D"/>
<path d="M217.456 105.061L73.4723 101.659C72.6912 101.64 71.9109 101.719 71.1498 101.893C70.7659 101.981 70.3879 102.093 70.0181 102.228C69.64 102.365 69.2706 102.525 68.912 102.706C68.5578 102.885 68.2141 103.084 67.8824 103.3C67.5442 103.521 67.2184 103.76 66.9062 104.016C66.5859 104.278 66.2794 104.556 65.9879 104.849C65.6914 105.147 65.4056 105.464 65.1306 105.799C64.8556 106.135 64.5952 106.486 64.3492 106.85C64.1033 107.215 63.8725 107.593 63.6568 107.985C63.4411 108.376 63.241 108.781 63.0564 109.199C62.8719 109.616 62.7035 110.046 62.5512 110.488C62.3936 110.945 62.2555 111.409 62.1369 111.881C62.0183 112.353 61.9192 112.83 61.8395 113.315C61.7616 113.799 61.7018 114.288 61.6604 114.783C61.6189 115.278 61.5981 115.777 61.5981 116.28C61.5998 116.783 61.6205 117.282 61.6604 117.777C61.7002 118.271 61.7599 118.76 61.8395 119.244C61.92 119.725 62.0195 120.201 62.1381 120.672C62.2568 121.143 62.3949 121.607 62.5525 122.063C62.7047 122.506 62.8731 122.935 63.0577 123.352C63.2422 123.768 63.4424 124.172 63.658 124.562C63.8737 124.953 64.1045 125.329 64.3505 125.692C64.596 126.054 64.8565 126.402 65.1319 126.736C65.4073 127.069 65.693 127.384 65.9892 127.68C66.2806 127.972 66.5871 128.248 66.9075 128.508C67.2196 128.762 67.5455 128.998 67.8836 129.217C68.2154 129.432 68.5592 129.628 68.9132 129.804C69.272 129.984 69.6413 130.141 70.0194 130.276C70.3893 130.409 70.7673 130.518 71.1511 130.603C71.531 130.689 71.916 130.75 72.3039 130.788C72.6926 130.824 73.0832 130.837 73.4735 130.825L217.456 126.504C217.668 126.497 217.878 126.473 218.086 126.432C218.295 126.39 218.501 126.331 218.702 126.256C218.909 126.178 219.109 126.084 219.302 125.976C219.505 125.862 219.7 125.734 219.885 125.594C220.073 125.451 220.253 125.297 220.424 125.134C220.602 124.962 220.772 124.781 220.931 124.591C221.095 124.398 221.253 124.19 221.406 123.968C221.559 123.746 221.706 123.512 221.847 123.267C221.988 123.019 222.121 122.763 222.247 122.498C222.373 122.233 222.49 121.959 222.6 121.676C222.71 121.388 222.811 121.095 222.905 120.797C222.998 120.5 223.083 120.193 223.16 119.877C223.241 119.554 223.31 119.224 223.369 118.888C223.427 118.552 223.477 118.212 223.519 117.869C223.559 117.524 223.589 117.176 223.609 116.825C223.629 116.475 223.639 116.121 223.639 115.765C223.638 115.412 223.628 115.059 223.609 114.707C223.59 114.354 223.56 114.006 223.519 113.663C223.479 113.319 223.429 112.979 223.369 112.645C223.309 112.311 223.239 111.98 223.16 111.653C223.083 111.337 222.997 111.029 222.904 110.729C222.811 110.43 222.709 110.139 222.6 109.857C222.491 109.574 222.373 109.301 222.248 109.036C222.122 108.771 221.989 108.516 221.848 108.271C221.706 108.025 221.559 107.792 221.407 107.571C221.254 107.35 221.096 107.144 220.932 106.951C220.773 106.762 220.603 106.582 220.424 106.411C220.254 106.248 220.074 106.096 219.885 105.954C219.7 105.815 219.505 105.689 219.303 105.576C219.11 105.47 218.909 105.378 218.702 105.301C218.501 105.227 218.295 105.17 218.086 105.129C217.878 105.089 217.667 105.066 217.456 105.061Z" fill="#E4E4E4"/>
<path d="M217.456 143.352L73.4722 153.74C73.0795 153.769 72.6889 153.821 72.3026 153.897C71.9126 153.974 71.5276 154.074 71.1498 154.197C70.7641 154.322 70.3863 154.47 70.0182 154.639C69.6387 154.814 69.2694 155.009 68.912 155.224C68.5571 155.438 68.2134 155.669 67.8824 155.917C67.5472 156.169 67.2219 156.439 66.9062 156.725C66.5906 157.013 66.2845 157.32 65.9879 157.646C65.6914 157.972 65.4056 158.316 65.1306 158.677C64.8556 159.04 64.5952 159.416 64.3492 159.804C64.1033 160.193 63.8725 160.593 63.6568 161.005C63.4411 161.417 63.241 161.841 63.0564 162.276C62.8719 162.712 62.7035 163.158 62.5513 163.614C62.3937 164.085 62.2555 164.563 62.1369 165.047C62.0183 165.531 61.9192 166.019 61.8395 166.51C61.7616 167.001 61.7018 167.497 61.6604 167.995C61.6189 168.494 61.5981 168.995 61.5981 169.498C61.5998 170.001 61.6205 170.498 61.6604 170.989C61.7002 171.48 61.7599 171.963 61.8395 172.439C61.92 172.916 62.0195 173.384 62.1381 173.843C62.2568 174.302 62.3949 174.752 62.5525 175.194C62.7047 175.62 62.8731 176.032 63.0577 176.431C63.2422 176.83 63.4424 177.214 63.658 177.584C63.8737 177.953 64.1045 178.308 64.3505 178.647C64.594 178.984 64.8548 179.308 65.1319 179.618C65.4019 179.919 65.6881 180.206 65.9892 180.477C66.2809 180.741 66.5874 180.988 66.9075 181.217C67.2203 181.44 67.5462 181.645 67.8836 181.831C68.2164 182.015 68.5603 182.179 68.9132 182.322C69.2735 182.468 69.643 182.591 70.0194 182.69C70.3914 182.787 70.7694 182.86 71.1511 182.908C71.5334 182.957 71.9184 182.981 72.3039 182.98C72.695 182.979 73.0856 182.954 73.4735 182.905L217.456 164.8C217.669 164.773 217.88 164.729 218.086 164.668C218.297 164.605 218.503 164.527 218.702 164.433C218.909 164.334 219.11 164.221 219.302 164.095C219.505 163.961 219.7 163.815 219.885 163.657C220.074 163.496 220.253 163.326 220.424 163.146C220.596 162.961 220.765 162.764 220.931 162.554C221.095 162.344 221.253 162.121 221.406 161.885C221.559 161.649 221.706 161.401 221.847 161.141C221.988 160.882 222.121 160.614 222.247 160.335C222.373 160.055 222.49 159.769 222.6 159.475C222.71 159.18 222.811 158.878 222.905 158.57C222.998 158.261 223.083 157.946 223.16 157.622C223.241 157.288 223.31 156.949 223.369 156.608C223.427 156.266 223.477 155.922 223.519 155.574C223.559 155.227 223.589 154.877 223.609 154.524C223.629 154.171 223.639 153.817 223.639 153.46C223.637 153.106 223.627 152.755 223.608 152.406C223.59 152.057 223.56 151.713 223.518 151.374C223.478 151.033 223.428 150.698 223.369 150.368C223.309 150.038 223.239 149.714 223.16 149.396C223.083 149.087 222.998 148.788 222.905 148.498C222.813 148.208 222.711 147.927 222.6 147.655C222.49 147.383 222.372 147.12 222.248 146.868C222.121 146.618 221.987 146.376 221.846 146.143C221.704 145.909 221.557 145.69 221.405 145.486C221.257 145.286 221.098 145.095 220.93 144.911C220.771 144.738 220.601 144.574 220.422 144.42C220.252 144.274 220.072 144.139 219.884 144.015C219.698 143.894 219.503 143.786 219.301 143.693C219.107 143.604 218.906 143.531 218.7 143.475C218.296 143.363 217.875 143.322 217.456 143.352" fill="#E4E4E4"/>
<path d="M138.977 145.255C139.889 146.751 141.326 147.865 143.016 148.384C144.705 148.904 146.529 148.793 148.141 148.074C149.754 147.354 151.042 146.076 151.762 144.481C152.481 142.886 152.583 141.086 152.046 139.423L179.951 82.865L166.594 74.8765L142.494 134.952C142.402 134.988 142.311 135.025 142.222 135.063C142.133 135.102 142.044 135.142 141.955 135.185C141.867 135.227 141.779 135.271 141.691 135.318C141.604 135.364 141.517 135.413 141.431 135.464C139.79 136.442 138.609 138.022 138.149 139.858C137.689 141.694 137.986 143.635 138.976 145.255L138.977 145.255Z" fill="#9E616A"/>
<path d="M174.625 104.674L154.8 99.6612C154.8 99.6612 155.447 98.2178 156.499 95.8264C157.551 93.4351 159.021 90.1004 160.675 86.3145C162.328 82.5285 164.162 78.2982 165.954 74.1167C167.746 69.9352 169.488 65.8038 170.956 62.2228C172.424 58.6417 174.091 56.4971 175.766 55.2951C177.153 54.2552 178.9 53.7971 180.627 54.0203C181.97 54.2175 183.253 54.6994 184.388 55.4327C184.926 55.7627 185.432 56.1412 185.898 56.5632L190.495 64.8094L174.625 104.674Z" fill="#CCCCCC"/>
<path d="M15.9712 100.195C15.4911 100.23 15.0134 100.291 14.5403 100.379C14.0641 100.467 13.5933 100.581 13.1299 100.72C12.6595 100.862 12.1971 101.029 11.745 101.22C11.2823 101.415 10.8302 101.635 10.3906 101.877C9.96052 102.115 9.54016 102.375 9.12954 102.655C8.71893 102.935 8.32013 103.236 7.93317 103.558C7.54661 103.879 7.17146 104.222 6.80772 104.586C6.44398 104.949 6.09352 105.333 5.75633 105.736C5.41913 106.14 5.09955 106.558 4.79759 106.99C4.49564 107.423 4.21236 107.868 3.94776 108.327C3.68563 108.787 3.4405 109.259 3.21238 109.743C2.98426 110.228 2.77689 110.723 2.59025 111.23C2.39573 111.756 2.22547 112.287 2.07947 112.824C1.93347 113.361 1.81174 113.902 1.71428 114.448C1.61639 114.994 1.54298 115.543 1.49404 116.097C1.4451 116.65 1.42064 117.205 1.42065 117.763C1.42065 118.321 1.44512 118.871 1.49404 119.415C1.54297 119.958 1.61638 120.493 1.71428 121.02C1.81174 121.546 1.93348 122.063 2.07947 122.571C2.22547 123.079 2.39511 123.576 2.58839 124.063C2.77668 124.533 2.98406 124.988 3.21052 125.428C3.43436 125.863 3.6802 126.286 3.94712 126.697C4.20987 127.1 4.49354 127.489 4.79698 127.863C5.09753 128.235 5.41774 128.591 5.75631 128.929C6.08928 129.262 6.44026 129.577 6.80772 129.872C7.16755 130.161 7.54348 130.43 7.93378 130.678C8.70403 131.167 9.52856 131.567 10.3912 131.871C11.2756 132.183 12.1946 132.389 13.1286 132.485C13.5971 132.532 14.0681 132.553 14.539 132.546C15.0175 132.539 15.4953 132.506 15.9699 132.446C16.4489 132.386 16.9241 132.299 17.3934 132.188C17.8641 132.075 18.3283 131.938 18.7839 131.776C19.2446 131.612 19.6963 131.424 20.137 131.213C20.5861 130.998 21.0238 130.761 21.4485 130.502C21.862 130.248 22.2647 129.975 22.6567 129.683C23.0486 129.392 23.4283 129.082 23.7958 128.752C24.1633 128.422 24.5181 128.074 24.8603 127.708C25.2025 127.343 25.5314 126.959 25.847 126.557C26.1647 126.156 26.4637 125.742 26.7441 125.317C27.0245 124.891 27.287 124.454 27.5318 124.006C27.7765 123.558 28.0029 123.1 28.2111 122.631C28.4193 122.162 28.6091 121.683 28.7804 121.195C28.9579 120.689 29.1132 120.179 29.2464 119.664C29.3795 119.15 29.4907 118.632 29.5798 118.11C29.6686 117.588 29.7354 117.064 29.7802 116.536C29.825 116.009 29.8474 115.479 29.8474 114.947C29.8469 114.415 29.8245 113.89 29.7802 113.371C29.7358 112.852 29.669 112.341 29.5798 111.837C29.4911 111.333 29.3799 110.837 29.2464 110.349C29.1128 109.86 28.9575 109.381 28.7804 108.911C28.6083 108.456 28.4185 108.015 28.2111 107.587C28.0009 107.161 27.7734 106.747 27.5287 106.346C27.0442 105.553 26.4809 104.811 25.847 104.128C25.5359 103.793 25.2074 103.474 24.8628 103.172C24.5234 102.875 24.1681 102.597 23.7983 102.339C23.4321 102.083 23.0518 101.847 22.6592 101.632C22.2668 101.418 21.8626 101.225 21.4485 101.055C20.5934 100.704 19.6992 100.454 18.7845 100.31C18.3241 100.237 17.8598 100.192 17.394 100.173C16.9195 100.154 16.4442 100.162 15.9706 100.196" fill="#E4E4E4"/>
<path d="M15.9712 157.888C15.4911 157.923 15.0134 157.984 14.5403 158.072C14.0641 158.16 13.5933 158.274 13.1299 158.413C12.6595 158.555 12.1971 158.722 11.745 158.913C11.2823 159.109 10.8302 159.328 10.3906 159.57C9.96052 159.808 9.54016 160.068 9.12954 160.348C8.71893 160.628 8.32013 160.929 7.93317 161.251C7.54661 161.573 7.17146 161.915 6.80772 162.279C6.44398 162.643 6.09352 163.026 5.75633 163.43C5.41913 163.833 5.09955 164.251 4.79759 164.684C4.49564 165.116 4.21236 165.562 3.94776 166.02C3.68563 166.48 3.4405 166.952 3.21238 167.436C2.98426 167.921 2.77689 168.416 2.59025 168.923C2.39573 169.449 2.22547 169.98 2.07947 170.517C1.93347 171.054 1.81174 171.595 1.71428 172.141C1.61639 172.687 1.54298 173.237 1.49404 173.79C1.4451 174.343 1.42064 174.898 1.42065 175.456C1.42065 176.014 1.44512 176.564 1.49404 177.108C1.54297 177.651 1.61638 178.186 1.71428 178.713C1.81174 179.239 1.93348 179.757 2.07947 180.264C2.22547 180.772 2.39511 181.269 2.58839 181.756C2.77668 182.227 2.98406 182.681 3.21052 183.121C3.43436 183.556 3.6802 183.979 3.94712 184.39C4.20987 184.793 4.49354 185.182 4.79698 185.556C5.09753 185.928 5.41774 186.284 5.75631 186.622C6.08928 186.955 6.44026 187.27 6.80772 187.565C7.16755 187.854 7.54349 188.123 7.93378 188.371C8.70403 188.86 9.52857 189.26 10.3912 189.564C11.2756 189.876 12.1946 190.082 13.1286 190.178C13.5971 190.225 14.0681 190.246 14.539 190.239C15.0175 190.233 15.4953 190.199 15.9699 190.139C16.4489 190.079 16.9241 189.993 17.3934 189.881C17.8641 189.768 18.3283 189.631 18.7839 189.469C19.2446 189.305 19.6963 189.117 20.137 188.906C20.5861 188.691 21.0238 188.454 21.4485 188.195C21.862 187.941 22.2647 187.668 22.6567 187.377C23.0486 187.085 23.4283 186.775 23.7958 186.445C24.1633 186.115 24.5181 185.767 24.8603 185.402C25.2025 185.036 25.5314 184.652 25.847 184.25C26.1647 183.849 26.4637 183.435 26.7441 183.01C27.0245 182.584 27.287 182.147 27.5318 181.699C27.7765 181.251 28.0029 180.793 28.2111 180.324C28.4193 179.855 28.6091 179.376 28.7804 178.888C28.9579 178.382 29.1132 177.872 29.2464 177.358C29.3795 176.843 29.4907 176.325 29.5798 175.804C29.6686 175.281 29.7354 174.757 29.7802 174.229C29.825 173.702 29.8474 173.172 29.8474 172.64C29.8469 172.108 29.8245 171.583 29.7802 171.064C29.7358 170.545 29.669 170.034 29.5798 169.53C29.4911 169.027 29.3799 168.531 29.2464 168.042C29.1128 167.553 28.9575 167.074 28.7804 166.604C28.6083 166.149 28.4185 165.708 28.2111 165.28C28.0009 164.854 27.7734 164.44 27.5287 164.039C27.0442 163.247 26.4809 162.504 25.847 161.822C25.5359 161.486 25.2074 161.167 24.8628 160.865C24.5234 160.568 24.1681 160.29 23.7983 160.032C23.4321 159.776 23.0518 159.54 22.6592 159.325C22.2668 159.111 21.8626 158.918 21.4485 158.749C20.5934 158.397 19.6992 158.147 18.7845 158.003C18.3241 157.93 17.8598 157.885 17.394 157.866C16.9195 157.847 16.4442 157.855 15.9706 157.889" fill="#E4E4E4"/>
<path d="M15.9737 37.6948C15.4962 37.6834 15.0185 37.6987 14.5428 37.7409C14.069 37.7828 13.5981 37.8517 13.1324 37.9471C12.664 38.0436 12.2016 38.1666 11.7475 38.3153C11.2864 38.4659 10.8342 38.6419 10.3931 38.8425C9.96136 39.0387 9.54041 39.2573 9.13205 39.4974C8.71966 39.7399 8.32032 40.0033 7.93567 40.2867C7.54481 40.5746 7.16898 40.8819 6.80961 41.2073C6.44421 41.5383 6.09312 41.8892 5.75634 42.2599C5.41914 42.631 5.09956 43.0185 4.79761 43.4224C4.49566 43.8262 4.21238 44.2448 3.94777 44.6781C3.68439 45.1172 3.43864 45.567 3.21053 46.0277C2.98242 46.4885 2.77505 46.9643 2.5884 47.4553C2.39513 47.9615 2.22548 48.476 2.07949 48.9989C1.93349 49.5219 1.81175 50.0516 1.71429 50.588C1.6164 51.126 1.543 51.6686 1.49406 52.2157C1.44512 52.7627 1.42065 53.3151 1.42067 53.8728C1.42067 54.4297 1.44513 54.982 1.49406 55.5299C1.54298 56.0778 1.61639 56.6198 1.71429 57.1558C1.81176 57.6918 1.93349 58.2206 2.07949 58.7423C2.22548 59.264 2.39512 59.7775 2.5884 60.2829C2.7767 60.771 2.98407 61.2456 3.21053 61.7068C3.43865 62.1663 3.685 62.6121 3.9496 63.0442C4.21419 63.4763 4.49749 63.893 4.79945 64.2944C5.10098 64.697 5.42055 65.0824 5.75817 65.4507C6.09579 65.8189 6.44626 66.1667 6.80958 66.4941C7.16707 66.8183 7.54104 67.1243 7.93004 67.411C8.31474 67.6919 8.71409 67.9527 9.12642 68.1923C9.53486 68.4299 9.95581 68.6458 10.3875 68.8392C10.8287 69.0371 11.2809 69.2102 11.7419 69.3579C12.649 69.6474 13.587 69.8328 14.5371 69.9102C15.4886 69.9881 16.4459 69.9595 17.3909 69.8249C17.8594 69.7581 18.3236 69.6651 18.7814 69.5463C19.2403 69.427 19.6921 69.2823 20.1345 69.113C20.5822 68.9418 21.02 68.7465 21.446 68.5281C21.8614 68.3152 22.2655 68.0815 22.6567 67.8278C23.0501 67.5724 23.4303 67.2977 23.7958 67.0047C24.1633 66.7101 24.5181 66.3963 24.8603 66.0632C25.2025 65.7302 25.5314 65.3779 25.847 65.0063C26.1647 64.6348 26.4637 64.2498 26.7441 63.8512C27.0245 63.4527 27.287 63.0411 27.5318 62.6164C27.7773 62.1916 28.0038 61.7549 28.2111 61.306C28.4185 60.8571 28.6083 60.3974 28.7804 59.9269C28.9579 59.4383 29.1132 58.9432 29.2464 58.4416C29.3795 57.94 29.4907 57.4326 29.5798 56.9195C29.6686 56.4043 29.7354 55.8851 29.7802 55.3618C29.825 54.8384 29.8474 54.3108 29.8474 53.7789C29.8469 53.2474 29.8245 52.7199 29.7802 52.1966C29.7358 51.6733 29.669 51.1555 29.5798 50.6432C29.4911 50.1305 29.3799 49.6235 29.2464 49.1223C29.1128 48.6211 28.9575 48.1268 28.7804 47.6395C28.6083 47.1685 28.4185 46.7092 28.2111 46.2616C28.0037 45.814 27.7763 45.378 27.5287 44.9537C27.2839 44.533 27.0214 44.1239 26.741 43.7262C26.4606 43.3284 26.1626 42.9455 25.847 42.5772C25.5334 42.2094 25.2054 41.8597 24.8628 41.5283C24.5202 41.1969 24.1653 40.8853 23.7983 40.5935C23.433 40.3023 23.053 40.0294 22.6598 39.776C22.2686 39.5247 21.8645 39.2934 21.4491 39.0831C21.023 38.8672 20.5852 38.6746 20.1376 38.5062C19.695 38.3396 19.2433 38.1978 18.7845 38.0815C18.3266 37.9654 17.8623 37.8753 17.394 37.8114C16.9221 37.7472 16.4468 37.7095 15.9705 37.6985L15.9737 37.6948ZM15.9705 36.1628C18.0605 36.2193 20.1102 36.7427 21.9655 37.6936C23.8091 38.6446 25.4433 39.947 26.7734 41.5252C28.1637 43.17 29.2464 45.0456 29.9711 47.0644C31.5231 51.4096 31.5231 56.1476 29.9711 60.4928C29.2457 62.5174 28.1631 64.3995 26.7734 66.0522C25.4431 67.638 23.8091 68.9496 21.9649 69.9121C20.112 70.8744 18.0626 71.4109 15.9699 71.4815C13.8644 71.5496 11.7712 71.138 9.85307 70.2785C7.91666 69.4035 6.18432 68.1433 4.76461 66.577C3.25702 64.9182 2.07709 62.9961 1.28562 60.9095C-0.428541 56.3672 -0.428541 51.368 1.28562 46.8257C2.07786 44.7328 3.25756 42.8035 4.76461 41.1361C6.18388 39.561 7.91578 38.2901 9.85307 37.402C11.7697 36.5305 13.8639 36.1056 15.9737 36.1604L15.9705 36.1628Z" fill="#59746D"/>
<path d="M15.9725 58.163L11.0719 48.0912L12.2353 47.3437L16.2717 55.6177L33.22 35.9653L34.2459 37.0436L15.9725 58.163Z" fill="#59746D"/>
<path d="M194.324 257.006L182.193 256.959L186.105 288.232L194.324 288.273V257.006Z" fill="#9E616A"/>
<path d="M196.42 296.142L169.931 296.004V295.673C169.93 295.003 169.997 294.334 170.129 293.676C170.389 292.378 170.908 291.144 171.656 290.045C172.415 288.932 173.389 287.977 174.521 287.233C175.638 286.5 176.891 285.993 178.208 285.742C178.876 285.616 179.555 285.554 180.235 285.558L196.42 285.637V296.142Z" fill="#2F2E41"/>
<path d="M155.48 256.858L143.383 256.811L147.282 288.041L155.48 288.082V256.858Z" fill="#9E616A"/>
<path d="M157.57 295.939L131.151 295.802V295.471C131.15 294.802 131.217 294.134 131.348 293.477C131.608 292.181 132.126 290.949 132.871 289.851C133.628 288.739 134.599 287.784 135.729 287.041C136.843 286.31 138.094 285.805 139.408 285.554C140.074 285.428 140.751 285.366 141.429 285.37L157.57 285.448V295.939Z" fill="#2F2E41"/>
<path d="M154.966 129.038L134.624 203.93L142.07 275.719L158.556 276.168L154.967 211.346L175.534 178.997L179.995 276.609L194.95 275.565L203.269 191.639C206.094 185.086 208.167 178.241 209.447 171.232C210.453 165.731 210.942 160.15 210.908 154.56C210.891 150.796 210.598 147.039 210.031 143.317C209.828 141.931 209.554 140.555 209.209 139.195L203.144 133.13L154.966 129.038Z" fill="#2F2E41"/>
<path d="M181.918 141.563C178.497 141.563 175.287 141.455 172.376 141.241C169.403 141.04 166.445 140.656 163.521 140.091C161.03 139.632 158.605 138.879 156.298 137.848C154.44 137.056 152.825 135.799 151.613 134.2L151.474 134.002L157.034 98.3038L163.03 58.1659C163.425 55.5098 164.796 53.0895 166.882 51.3659C168.968 49.6422 171.624 48.7356 174.344 48.8184L193.122 49.3861C194.53 49.4287 195.915 49.7497 197.195 50.3303C198.475 50.9108 199.624 51.7389 200.574 52.7656C201.523 53.7923 202.254 54.9966 202.723 56.3072C203.193 57.6177 203.39 59.0078 203.304 60.3951L200.839 100.313L209.932 139.687L209.288 139.776C209.029 139.81 208.031 139.939 206.468 140.113C204.425 140.34 202.339 140.544 200.267 140.72C197.337 140.969 194.469 141.165 191.744 141.303C188.289 141.476 184.976 141.56 181.918 141.563Z" fill="#DBAB64"/>
<path d="M171.497 41.7254C171.492 41.7254 171.487 41.7254 171.482 41.7254C171.088 41.7251 170.698 41.6483 170.335 41.4994C169.971 41.3504 169.64 41.1322 169.362 40.8572C169.083 40.5822 168.863 40.2558 168.712 39.8967C168.561 39.5375 168.484 39.1526 168.484 38.764V22.2478C168.481 19.2887 169.082 16.3593 170.249 13.6337C172.536 8.31478 176.815 4.07151 182.194 1.7882C185.597 0.348526 189.308 -0.236239 192.996 0.0862705C196.683 0.40878 200.232 1.62849 203.325 3.63619C206.418 5.64389 208.957 8.3769 210.716 11.5905C212.476 14.8041 213.399 18.3979 213.405 22.0502V38.5915C213.406 38.9896 213.325 39.3837 213.168 39.7503C212.859 40.4654 212.283 41.0354 211.559 41.3411C211.187 41.4976 210.787 41.5788 210.383 41.5799L171.495 41.7254H171.497Z" fill="#2F2E41"/>
<path d="M201.086 16.5834C202.653 19.406 203.336 22.6232 203.05 25.8287C202.765 29.0342 201.522 32.0842 199.48 34.5936C197.438 37.103 194.689 38.9592 191.578 39.9277C188.467 40.8961 185.136 40.9335 182.003 40.0351C179.929 39.4471 177.994 38.459 176.31 37.128C174.626 35.7969 173.226 34.1494 172.192 32.2809C170.63 29.4596 169.949 26.245 170.235 23.0424C170.522 19.8398 171.763 16.7926 173.803 14.2851C175.842 11.7775 178.589 9.9218 181.696 8.95196C184.803 7.98211 188.132 7.94155 191.262 8.83538C193.338 9.42118 195.275 10.4078 196.962 11.7379C198.648 13.068 200.05 14.7153 201.086 16.5841V16.5834Z" fill="#9E616A"/>
<path d="M163.174 23.5919C163.172 21.2517 163.647 18.9349 164.571 16.7792C166.378 12.5733 169.762 9.21812 174.016 7.41329C176.199 6.49069 178.548 6.01062 180.922 6.00165L184.273 5.98508C184.311 5.98486 184.348 5.98477 184.386 5.98479C186.706 5.9862 189.003 6.43845 191.147 7.31573C193.29 8.193 195.237 9.47812 196.876 11.0977C198.516 12.7173 199.816 14.6396 200.703 16.755C201.59 18.8703 202.045 21.1372 202.044 23.4262V23.757L194.955 23.7853L192.538 17.1235L192.055 23.7981L188.393 23.8141L187.175 20.4531L186.93 23.8184L163.178 23.9233L163.174 23.5919Z" fill="#2F2E41"/>
<path d="M134.637 58.3368C133.546 58.6 132.526 59.0932 131.647 59.7823C130.96 60.3186 130.372 60.9685 129.911 61.7029C129 63.1565 128.599 64.865 128.769 66.5656C128.854 67.4247 129.091 68.2626 129.467 69.042C129.93 70.0134 130.598 70.8767 131.424 71.5749C132.251 72.2731 133.219 72.7904 134.263 73.0925C135.307 73.3947 136.405 73.4749 137.483 73.3278C138.561 73.1807 139.595 72.8097 140.517 72.2393C140.585 72.196 140.653 72.1521 140.719 72.1075C140.786 72.063 140.851 72.0175 140.916 71.9711C140.98 71.9246 141.044 71.8774 141.106 71.8295C141.169 71.7816 141.231 71.733 141.292 71.6836L180.407 85.4175C181.611 85.8398 182.921 85.865 184.14 85.4893C185.36 85.1136 186.422 84.3574 187.168 83.3344L196.441 70.6677L185.23 63.2196L179.346 69.8133L143.549 62.7883C143.51 62.6968 143.47 62.6057 143.428 62.5151C143.386 62.4245 143.342 62.3343 143.297 62.2445C143.251 62.155 143.203 62.0659 143.154 61.9773C143.105 61.8887 143.053 61.8007 142.998 61.7135C142.144 60.3522 140.875 59.2924 139.373 58.6858C137.871 58.0793 136.214 57.9571 134.637 58.3368Z" fill="#9E616A"/>
<path d="M179.978 65.655C181.148 64.2144 182.784 62.3439 184.446 60.4888C186.108 58.6336 187.795 56.7949 189.067 55.4194C190.339 54.0439 191.196 53.1323 191.196 53.1323C192.37 51.3804 194.123 50.0836 196.157 49.4622C198.19 48.8408 200.379 48.933 202.352 49.7232C204.324 50.5134 205.959 51.9529 206.978 53.7972C207.996 55.6414 208.336 57.7767 207.94 59.8404C207.714 61.0284 207.246 62.1589 206.566 63.164C206.566 63.164 205.289 64.8114 203.363 67.2703C201.437 69.7293 198.86 73.0026 196.26 76.2568C193.66 79.511 191.035 82.7483 189.011 85.138C186.987 87.5277 185.563 89.0715 185.362 88.9393L178.302 68.2359C178.102 68.1037 178.807 67.0956 179.978 65.655Z" fill="#DBAB64"/>
<path d="M184.168 41.2049C184.057 41.7388 184.1 42.2928 184.292 42.8037C184.389 43.0652 184.522 43.3121 184.688 43.5372C184.83 43.7289 184.995 43.9034 185.178 44.057C185.722 44.5105 186.412 44.7579 187.124 44.7549C187.169 44.7544 187.213 44.7532 187.257 44.7512C187.302 44.7491 187.346 44.7461 187.391 44.742C187.435 44.7383 187.48 44.7334 187.524 44.7272C187.569 44.7211 187.613 44.7141 187.658 44.7064L190.174 44.2553L193.639 36.9516V43.6415L205.078 41.61V13.2207L185.902 13.3115L186.376 13.8547C187.949 15.6772 188.983 17.8928 189.362 20.2574C189.734 22.6524 189.687 25.0926 189.224 27.4721C188.774 29.8798 188.09 32.2392 187.182 34.518C186.389 36.5368 185.478 38.5087 184.455 40.4242C184.323 40.6699 184.226 40.9327 184.168 41.2049Z" fill="#2F2E41"/>
<path d="M51.3436 297H288.378C288.543 297 288.701 296.935 288.818 296.82C288.934 296.705 289 296.549 289 296.386C289 296.223 288.934 296.067 288.818 295.952C288.701 295.837 288.543 295.772 288.378 295.772H51.3436C51.1786 295.772 51.0203 295.837 50.9037 295.952C50.787 296.067 50.7214 296.223 50.7214 296.386C50.7214 296.549 50.787 296.705 50.9037 296.82C51.0203 296.935 51.1786 297 51.3436 297Z" fill="#CACACA"/>
</g>
<defs>
<clipPath id="clip0_231_1134">
<rect width="289" height="297" fill="white"/>
</clipPath>
</defs>
</svg>
