<svg width="297" height="297" viewBox="0 0 297 297" fill="none" xmlns="http://www.w3.org/2000/svg">
<g clip-path="url(#clip0_179_924)">
<path d="M251.877 155.876C253.835 156.424 255.924 156.229 257.749 155.33C259.574 154.43 261.008 152.888 261.779 150.995C262.549 149.103 262.604 146.992 261.931 145.061C261.259 143.131 259.907 141.516 258.13 140.523L240.512 120.403L225.61 123.644L246.569 144.308C246.054 145.406 245.784 146.605 245.779 147.82C245.774 149.035 246.034 150.236 246.54 151.339C247.046 152.442 247.786 153.42 248.708 154.204C249.63 154.988 250.712 155.559 251.877 155.876L251.877 155.876Z" fill="#A0616A"/>
<path d="M193.912 83.8462L237.824 139.329L251.209 133.143L199.595 52.2596L193.912 83.8462Z" fill="#DBAB64"/>
<path d="M90.4216 296.89C93.0816 296.89 95.2379 294.719 95.2379 292.042C95.2379 289.364 93.0816 287.194 90.4216 287.194C87.7616 287.194 85.6052 289.364 85.6052 292.042C85.6052 294.719 87.7616 296.89 90.4216 296.89Z" fill="#3F3D56"/>
<path d="M93.9244 194.42C93.9244 194.42 105.309 159.603 106.184 157.179C107.06 154.755 116.255 158.721 118.663 159.383C121.071 160.044 120.414 162.468 120.414 162.468L108.155 198.167L111.876 199.93L123.26 164.01C129.828 157.179 125.012 156.738 125.012 156.738C125.012 156.738 111.001 151.89 105.746 151.449C100.492 151.009 102.463 157.399 102.463 157.399L89.7649 191.335L93.9244 194.42Z" fill="#3F3D56"/>
<path d="M121.29 202.794L121.288 202.792C119.672 200.46 117.378 198.69 114.722 197.726C114.628 197.691 114.518 197.651 114.394 197.607C108.362 195.485 66.3397 184.063 66.3397 184.063C66.3397 184.063 58.0206 180.978 54.2989 189.352C50.5772 197.726 28.4658 267.141 28.4658 267.141C28.4658 267.141 71.7121 290.42 84.32 292.954C85.0984 293.143 85.9015 293.207 86.6997 293.144C88.8428 292.845 90.9521 292.338 92.9982 291.63C95.2611 290.887 97.4138 289.84 99.3974 288.516L123.917 214.694C123.917 214.694 127.42 206.54 121.29 202.794Z" fill="#59746D"/>
<path d="M121.29 202.794L121.288 202.792C119.673 200.461 117.379 198.691 114.722 197.726C114.628 197.691 114.519 197.651 114.394 197.607C116.377 201.106 117.131 206.541 117.131 206.541C117.131 206.541 93.0488 278.6 90.8596 285.431C89.1914 290.638 85.8265 292.408 84.3203 292.954C85.0987 293.143 85.9018 293.207 86.7 293.144C88.8431 292.845 90.9524 292.338 92.9985 291.63C93.5969 290.939 94.127 290.192 94.5813 289.397C94.5813 289.397 119.101 215.575 121.29 212.05C123.479 208.524 121.29 202.794 121.29 202.794Z" fill="#3F3D56"/>
<path d="M75.6442 297C78.3042 297 80.4606 294.83 80.4606 292.152C80.4606 289.475 78.3042 287.304 75.6442 287.304C72.9842 287.304 70.8279 289.475 70.8279 292.152C70.8279 294.83 72.9842 297 75.6442 297Z" fill="#3F3D56"/>
<path d="M28.9038 276.616C31.5638 276.616 33.7201 274.446 33.7201 271.768C33.7201 269.091 31.5638 266.92 28.9038 266.92C26.2438 266.92 24.0874 269.091 24.0874 271.768C24.0874 274.446 26.2438 276.616 28.9038 276.616Z" fill="#3F3D56"/>
<path d="M113.799 160.13C111.862 160.747 109.767 160.628 107.911 159.794C106.056 158.961 104.568 157.471 103.731 155.607C102.894 153.744 102.764 151.636 103.368 149.683C103.972 147.73 105.266 146.067 107.006 145.011L123.901 124.272L138.908 126.976L118.694 148.379C119.248 149.458 119.56 150.647 119.608 151.861C119.656 153.074 119.439 154.284 118.972 155.405C118.505 156.525 117.8 157.529 116.907 158.345C116.013 159.162 114.952 159.771 113.799 160.13L113.799 160.13Z" fill="#A0616A"/>
<path d="M228.95 251.382L239.416 251.217L238.157 287.122H228.952L228.95 251.382Z" fill="#A0616A"/>
<path d="M226.604 284.097L244.732 284.096H244.733C247.797 284.096 250.736 285.322 252.902 287.502C255.069 289.683 256.286 292.641 256.286 295.725V296.103L226.604 296.104L226.604 284.097Z" fill="#2F2E41"/>
<path d="M159.657 241.86L171.09 249.248L148.221 276.941L140.475 271.935L159.657 241.86Z" fill="#A0616A"/>
<path d="M140.123 268.112L155.378 277.97L155.379 277.971C157.957 279.637 159.772 282.266 160.425 285.28C161.077 288.293 160.514 291.444 158.859 294.039L158.656 294.357L133.678 278.216L140.123 268.112Z" fill="#2F2E41"/>
<path d="M155.584 132.222C155.584 132.222 180.986 47.2991 189.149 46.1515C197.313 45.0039 210.466 67.9416 210.466 67.9416C227.519 89.843 245.104 160.787 245.104 160.787C245.104 160.787 215.789 162.633 194.36 174.109C172.931 185.585 147.642 173.528 147.642 173.528L155.584 132.222Z" fill="#A89B97"/>
<path opacity="0.1" d="M155.584 132.222C155.584 132.222 180.986 47.299 189.149 46.1514C197.313 45.0038 207.125 68.1743 207.125 68.1743C215.623 103.528 245.104 160.786 245.104 160.786C245.104 160.786 215.789 162.633 194.36 174.109C172.931 185.585 147.642 173.528 147.642 173.528L155.584 132.222Z" fill="#999999"/>
<path d="M176.425 106.813V149.486L171.435 211.301L146.509 258.06L158.406 266.613L192.396 222.135L205.84 177.972L226.953 275.737L242.815 274.596L231.798 139.047L210.894 100.893L176.425 106.813Z" fill="#443E3E"/>
<path d="M202.036 65.5389C209.967 73.5221 202.602 82.0755 202.602 82.0755L211.666 102.604L175.977 112.298L163.504 56.1996L172.002 47.0759C188.997 46.5057 189.006 46.1512 189.006 46.1512C191.984 49.0843 202.036 65.5389 202.036 65.5389Z" fill="#CCCCCC"/>
<path d="M161.87 50.5341C158.92 52.7182 156.85 55.8996 156.041 59.4949C155.232 63.0902 155.737 66.8587 157.464 70.1095C161.553 77.966 165.951 90.1359 163.683 103.496C159.579 127.675 146.424 146.045 139.096 151.945C136.545 153.999 136.456 156.99 136.83 159.137C137.876 165.136 143.655 171.944 147.652 173.308C147.921 173.398 148.203 173.443 148.486 173.44C154.98 173.443 170.952 152.626 189.306 111.964C200.737 86.6397 192.44 66.3345 183.468 53.7597C182.29 52.1144 180.8 50.7206 179.083 49.6592C177.366 48.5978 175.458 47.8897 173.467 47.5761C171.477 47.2625 169.444 47.3495 167.487 47.8322C165.53 48.3149 163.688 49.1835 162.067 50.3879L161.87 50.5341Z" fill="#DBAB64"/>
<path d="M178.8 75.0168L127.257 143.09L113.661 137.388L162.381 54.7047L178.8 75.0168Z" fill="#DBAB64"/>
<path d="M194.089 38.7605H158.637C157.908 38.7597 157.209 38.4677 156.693 37.9487C156.178 37.4297 155.888 36.7259 155.887 35.9919V20.6108C155.886 17.9032 156.414 15.2219 157.443 12.72C158.471 10.2182 159.979 7.94479 161.88 6.02976C163.782 4.11472 166.04 2.59557 168.525 1.55911C171.01 0.522641 173.673 -0.010828 176.363 -0.010828C179.053 -0.010828 181.716 0.522641 184.201 1.55911C186.686 2.59557 188.944 4.11472 190.846 6.02976C192.747 7.94479 194.255 10.2182 195.284 12.72C196.312 15.2219 196.841 17.9032 196.839 20.6108V35.9919C196.838 36.726 196.548 37.4297 196.033 37.9487C195.517 38.4677 194.818 38.7597 194.089 38.7605V38.7605Z" fill="#2F2E41"/>
<path d="M193.743 30.5395C197.72 23.2166 195.047 14.0351 187.772 10.0321C180.497 6.029 171.375 8.72027 167.398 16.0432C163.421 23.3661 166.095 32.5476 173.37 36.5507C180.645 40.5537 189.767 37.8624 193.743 30.5395Z" fill="#A0616A"/>
<path d="M201.683 22.1488H180.006L179.783 19.0161L178.672 22.1488H175.334L174.894 15.9399L172.691 22.1488H166.232V21.8412C166.237 17.5186 167.945 13.3745 170.982 10.3179C174.018 7.26137 178.135 5.54206 182.43 5.53718H185.486C189.78 5.54206 193.897 7.26136 196.934 10.3179C199.97 13.3744 201.679 17.5186 201.683 21.8412V22.1488Z" fill="#2F2E41"/>
<path d="M179.828 41.6317C179.665 41.6315 179.502 41.6171 179.342 41.5884L163.468 38.7693V12.363H180.942L180.509 12.8707C174.49 19.9364 179.025 31.3936 182.263 37.5941C182.502 38.0483 182.608 38.561 182.57 39.0734C182.532 39.5857 182.351 40.0768 182.048 40.4901C181.794 40.8435 181.46 41.1313 181.075 41.3297C180.689 41.5282 180.262 41.6317 179.828 41.6317Z" fill="#2F2E41"/>
<path d="M-55.3579 296.43C-55.3579 296.279 -55.2982 296.134 -55.192 296.027C-55.0857 295.92 -54.9417 295.86 -54.7914 295.86H425.602C425.752 295.86 425.897 295.92 426.003 296.027C426.109 296.134 426.169 296.279 426.169 296.43C426.169 296.581 426.109 296.726 426.003 296.833C425.897 296.94 425.752 297 425.602 297H-54.7914C-54.9417 297 -55.0857 296.94 -55.192 296.833C-55.2982 296.726 -55.3579 296.581 -55.3579 296.43Z" fill="#CBCBCB"/>
</g>
<defs>
<clipPath id="clip0_179_924">
<rect width="297" height="297" fill="white"/>
</clipPath>
</defs>
</svg>
