<svg width="330" height="297" viewBox="0 0 330 297" fill="none" xmlns="http://www.w3.org/2000/svg">
<path d="M263.506 252.117C264.873 241.143 271.686 230.33 282.169 226.758C278.035 238.054 278.036 250.446 282.172 261.741C283.783 266.092 286.028 270.763 284.513 275.147C283.57 277.875 281.264 279.963 278.686 281.268C276.107 282.573 273.246 283.195 270.421 283.805L269.865 284.264C265.379 274.152 262.139 263.092 263.506 252.117Z" fill="#F0F0F0"/>
<path d="M282.273 226.966C276.168 233.795 272.374 242.371 271.429 251.476C271.191 253.433 271.263 255.415 271.643 257.349C272.074 259.221 272.999 260.944 274.322 262.338C275.53 263.663 276.919 264.878 277.783 266.473C278.214 267.296 278.465 268.201 278.52 269.127C278.576 270.054 278.435 270.982 278.106 271.85C277.343 274.035 275.839 275.816 274.308 277.506C272.608 279.383 270.812 281.306 270.089 283.794C270.002 284.096 269.538 283.942 269.626 283.641C270.883 279.312 275.092 276.853 277.1 272.954C278.037 271.134 278.43 269.022 277.552 267.101C276.784 265.422 275.352 264.167 274.118 262.836C272.807 261.495 271.845 259.853 271.316 258.055C270.838 256.147 270.69 254.171 270.876 252.213C271.226 247.797 272.269 243.464 273.967 239.372C275.879 234.692 278.579 230.372 281.95 226.6C282.159 226.367 282.481 226.734 282.273 226.966H282.273Z" fill="white"/>
<path d="M271.56 248.527C270.052 248.161 268.722 247.272 267.81 246.018C266.897 244.764 266.461 243.227 266.578 241.682C266.603 241.369 267.091 241.393 267.066 241.706C266.954 243.145 267.361 244.577 268.213 245.743C269.065 246.908 270.307 247.732 271.713 248.064C272.019 248.136 271.864 248.599 271.56 248.527V248.527Z" fill="white"/>
<path d="M273.621 261.747C276.346 260.123 278.357 257.533 279.254 254.494C279.343 254.193 279.807 254.346 279.718 254.647C278.779 257.807 276.68 260.498 273.841 262.182C273.57 262.343 273.352 261.906 273.621 261.747Z" fill="white"/>
<path d="M314.124 246.36C313.959 246.467 313.795 246.574 313.63 246.685C311.422 248.135 309.336 249.761 307.392 251.547C307.239 251.683 307.087 251.823 306.938 251.963C302.301 256.318 298.513 261.494 295.768 267.229C294.678 269.512 293.763 271.875 293.032 274.296C292.022 277.641 291.194 281.347 289.196 284.083C288.991 284.37 288.768 284.645 288.528 284.905H270.469C270.428 284.885 270.386 284.868 270.345 284.848L269.624 284.881C269.653 284.753 269.686 284.622 269.715 284.494C269.731 284.42 269.752 284.346 269.768 284.272C269.781 284.223 269.793 284.173 269.801 284.128C269.805 284.111 269.81 284.095 269.814 284.083C269.822 284.037 269.834 283.996 269.843 283.955C270.024 283.219 270.211 282.482 270.403 281.746C270.403 281.742 270.403 281.742 270.407 281.738C271.818 276.113 273.893 270.675 276.588 265.538C276.67 265.386 276.752 265.23 276.843 265.077C278.091 262.804 279.523 260.635 281.124 258.594C282.005 257.479 282.941 256.41 283.93 255.39C286.49 252.758 289.449 250.546 292.698 248.832C299.176 245.418 306.675 244.11 313.597 246.196C313.774 246.249 313.947 246.303 314.124 246.36Z" fill="#F0F0F0"/>
<path d="M314.084 246.589C305.091 248.372 296.889 252.939 290.644 259.641C289.274 261.06 288.136 262.686 287.273 264.458C286.488 266.212 286.188 268.144 286.404 270.052C286.569 271.836 286.945 273.642 286.674 275.435C286.521 276.35 286.176 277.223 285.662 277.997C285.147 278.77 284.475 279.426 283.689 279.922C281.762 281.207 279.487 281.725 277.245 282.155C274.756 282.631 272.163 283.087 270.085 284.64C269.833 284.828 269.556 284.427 269.807 284.239C273.422 281.538 278.266 282.105 282.22 280.198C284.065 279.308 285.653 277.858 286.11 275.797C286.51 273.994 286.123 272.132 285.94 270.327C285.702 268.468 285.924 266.579 286.586 264.826C287.356 263.015 288.429 261.348 289.759 259.897C292.701 256.582 296.147 253.749 299.97 251.502C304.319 248.914 309.08 247.088 314.046 246.103C314.354 246.042 314.389 246.529 314.084 246.589Z" fill="white"/>
<path d="M292.527 257.365C291.543 256.166 291.018 254.657 291.046 253.107C291.073 251.558 291.652 250.068 292.677 248.905C292.886 248.67 293.261 248.983 293.052 249.218C292.095 250.299 291.556 251.687 291.534 253.13C291.511 254.573 292.006 255.976 292.929 257.087C293.129 257.329 292.727 257.605 292.527 257.365Z" fill="white"/>
<path d="M286.201 269.159C289.356 269.5 292.524 268.641 295.072 266.754C295.325 266.567 295.603 266.967 295.35 267.154C292.694 269.114 289.396 270.001 286.114 269.639C285.801 269.604 285.89 269.125 286.201 269.159Z" fill="white"/>
<path d="M304.403 249.555C304.686 250.098 305.101 250.562 305.609 250.906C306.117 251.249 306.703 251.462 307.313 251.523C307.626 251.554 307.537 252.034 307.226 252.003C306.552 251.932 305.905 251.697 305.343 251.318C304.781 250.94 304.32 250.43 304.001 249.833C303.966 249.779 303.953 249.714 303.965 249.651C303.976 249.588 304.011 249.532 304.063 249.494C304.116 249.457 304.182 249.443 304.245 249.455C304.309 249.466 304.365 249.502 304.403 249.555Z" fill="white"/>
<path d="M67.6519 96.4718C51.4304 105.014 38.649 121.88 39.2504 140.18C54.3493 127.171 73.5704 119.914 93.5129 119.692C101.204 119.634 109.765 120.369 115.678 115.458C119.357 112.403 121.244 107.614 121.758 102.864C122.272 98.1136 121.561 93.3256 120.851 88.6002L121.238 87.4715C102.926 86.4601 83.8735 87.9298 67.6519 96.4718Z" fill="#F0F0F0"/>
<path d="M39.6331 140.219C46.6499 126.78 57.7297 115.89 71.2987 109.096C74.1938 107.581 77.3099 106.532 80.5323 105.986C83.6885 105.556 86.9026 105.977 89.8405 107.207C92.6029 108.298 95.302 109.733 98.282 110.135C99.8105 110.318 101.36 110.177 102.83 109.72C104.3 109.263 105.657 108.501 106.811 107.484C109.753 105.025 111.634 101.656 113.359 98.2989C115.274 94.5711 117.205 90.6687 120.641 88.0938C121.057 87.7818 120.548 87.1551 120.132 87.4666C114.154 91.9464 112.805 99.8947 107.933 105.282C105.66 107.796 102.614 109.642 99.1201 109.409C96.0652 109.206 93.2807 107.728 90.4932 106.599C87.6448 105.357 84.5353 104.831 81.4363 105.067C78.1965 105.447 75.0451 106.375 72.117 107.81C65.4734 110.938 59.3636 115.088 54.0114 120.11C47.8712 125.808 42.7525 132.513 38.8768 139.934C38.6371 140.393 39.395 140.676 39.6331 140.219H39.6331Z" fill="white"/>
<path d="M66.8006 111.027C65.3497 108.909 63.192 107.374 60.7126 106.698C58.2333 106.021 55.5939 106.247 53.2657 107.334C52.7954 107.556 53.1182 108.296 53.5891 108.074C55.7553 107.057 58.2139 106.848 60.5214 107.482C62.8288 108.117 64.8331 109.554 66.1723 111.534C66.4639 111.964 67.0905 111.454 66.8006 111.027H66.8006Z" fill="white"/>
<path d="M88.5128 106.469C87.5895 111.633 84.7507 116.26 80.5623 119.427C80.1471 119.74 80.6562 120.367 81.0709 120.054C85.4233 116.75 88.3677 111.929 89.3167 106.554C89.4068 106.041 88.6024 105.959 88.5128 106.469V106.469Z" fill="white"/>
<path d="M48.8529 126.238C49.5853 126.941 50.1314 127.814 50.4422 128.78C50.753 129.745 50.8187 130.773 50.6334 131.77C50.5368 132.281 51.3413 132.362 51.4372 131.854C51.6368 130.752 51.5629 129.617 51.2219 128.55C50.8809 127.482 50.2832 126.514 49.4811 125.73C49.4117 125.65 49.3143 125.599 49.2087 125.588C49.1032 125.577 48.9973 125.607 48.9127 125.671C48.8299 125.738 48.7771 125.836 48.7659 125.942C48.7547 126.048 48.786 126.155 48.8529 126.238Z" fill="white"/>
<path d="M88.3725 178.101C88.4419 177.784 88.5112 177.467 88.5869 177.146C89.5418 172.884 90.842 168.706 92.4747 164.654C92.5959 164.339 92.7235 164.021 92.8536 163.71C96.8912 153.989 102.701 145.101 109.989 137.498C112.892 134.475 116.02 131.677 119.348 129.128C123.944 125.608 129.208 122.157 132.281 117.465C132.607 116.979 132.902 116.473 133.166 115.951L122.587 88.0298C122.531 87.9784 122.481 87.9242 122.425 87.8725L122.054 86.7384C121.873 86.8579 121.688 86.9857 121.507 87.1052C121.402 87.1741 121.299 87.2492 121.194 87.3181C121.125 87.366 121.055 87.4142 120.99 87.4534C120.967 87.4693 120.944 87.4855 120.927 87.4989C120.862 87.5382 120.805 87.5816 120.746 87.6184C119.71 88.33 118.678 89.0501 117.648 89.7787C117.642 89.7811 117.642 89.7811 117.638 89.7897C109.807 95.3612 102.374 101.634 96.1311 108.834C95.9434 109.051 95.7491 109.27 95.5662 109.499C92.7701 112.76 90.2457 116.244 88.0181 119.916C86.8048 121.93 85.6945 124.005 84.6913 126.131C82.1098 131.63 80.4108 137.501 79.6566 143.528C78.1549 155.542 80.5186 167.902 87.8084 177.382C87.995 177.625 88.1794 177.861 88.3725 178.101Z" fill="#F0F0F0"/>
<path d="M88.7036 177.904C86.2017 162.956 88.481 147.601 95.2178 134.02C96.6161 131.071 98.4713 128.36 100.715 125.987C102.976 123.746 105.796 122.151 108.883 121.367C111.747 120.577 114.768 120.101 117.389 118.631C118.72 117.858 119.872 116.813 120.77 115.565C121.668 114.317 122.292 112.893 122.6 111.387C123.466 107.655 122.937 103.835 122.29 100.118C121.571 95.9897 120.759 91.7135 121.95 87.5922C122.094 87.0928 121.309 86.8985 121.165 87.3971C119.093 94.5676 122.81 101.724 122.169 108.955C121.87 112.329 120.55 115.633 117.621 117.547C115.059 119.221 111.944 119.715 109.038 120.489C106.015 121.21 103.215 122.659 100.882 124.71C98.5249 126.961 96.5682 129.596 95.0961 132.502C91.6774 138.992 89.3022 145.979 88.0574 153.206C86.5908 161.446 86.547 169.876 87.9278 178.131C88.0134 178.642 88.7887 178.412 88.7036 177.904H88.7036Z" fill="white"/>
<path d="M92.7906 138.266C90.3548 137.447 87.7067 137.519 85.3192 138.469C82.9317 139.419 80.9602 141.186 79.7569 143.453C79.515 143.913 80.219 144.31 80.4613 143.849C81.5779 141.736 83.4145 140.09 85.6396 139.21C87.8646 138.33 90.3316 138.273 92.5952 139.049C93.0873 139.217 93.2799 138.433 92.7906 138.266V138.266Z" fill="white"/>
<path d="M107.378 121.576C109.755 126.254 110.279 131.654 108.844 136.701C108.702 137.201 109.486 137.395 109.629 136.896C111.112 131.642 110.555 126.023 108.071 121.16C107.834 120.697 107.143 121.115 107.378 121.576H107.378Z" fill="white"/>
<path d="M87.6337 161.199C88.6423 161.32 89.605 161.689 90.4354 162.274C91.2658 162.858 91.9379 163.639 92.3913 164.546C92.6224 165.012 93.3137 164.593 93.0841 164.13C92.5785 163.13 91.8352 162.268 90.9191 161.621C90.0031 160.974 88.9422 160.56 87.8291 160.416C87.7253 160.394 87.6169 160.412 87.5259 160.467C87.4349 160.521 87.3681 160.608 87.3392 160.71C87.3138 160.814 87.3306 160.924 87.3857 161.015C87.4408 161.107 87.5299 161.173 87.6337 161.199V161.199Z" fill="white"/>
<path d="M247.567 67.7299H245.998V24.8296C245.998 21.5689 245.355 18.3402 244.105 15.3277C242.855 12.3153 241.023 9.57807 238.714 7.27243C236.405 4.96679 233.663 3.13785 230.646 1.89005C227.628 0.642241 224.394 3.16805e-06 221.128 0H130.09C123.494 -1.27961e-05 117.169 2.61594 112.504 7.27237C107.84 11.9288 105.22 18.2443 105.22 24.8295V260.184C105.22 266.769 107.84 273.085 112.504 277.741C117.168 282.398 123.494 285.014 130.09 285.014H221.128C227.724 285.014 234.05 282.398 238.714 277.741C243.378 273.085 245.998 266.77 245.998 260.184V98.2672H247.567V67.7299Z" fill="#3F3D56"/>
<path d="M222.132 6.4598H210.248C210.795 7.79744 211.003 9.24872 210.856 10.6858C210.708 12.1229 210.209 13.5017 209.402 14.7007C208.595 15.8997 207.505 16.8822 206.227 17.5615C204.95 18.2409 203.526 18.5962 202.079 18.5964H149.924C148.477 18.5963 147.052 18.2409 145.775 17.5615C144.498 16.8822 143.408 15.8997 142.601 14.7007C141.794 13.5017 141.295 12.1229 141.147 10.6858C140.999 9.24872 141.208 7.79742 141.755 6.45978H130.655C125.73 6.45978 121.006 8.41335 117.523 11.8907C114.04 15.3681 112.083 20.0844 112.083 25.0022V260.012C112.083 264.929 114.04 269.646 117.523 273.123C121.006 276.6 125.73 278.554 130.655 278.554H222.132C227.058 278.554 231.782 276.6 235.265 273.123C238.748 269.646 240.704 264.929 240.704 260.012V25.0022C240.704 22.5672 240.224 20.156 239.291 17.9063C238.357 15.6567 236.989 13.6126 235.265 11.8907C233.54 10.1689 231.493 8.80308 229.239 7.87124C226.986 6.9394 224.571 6.45979 222.132 6.4598Z" fill="white"/>
<path d="M176.42 144.342C165.581 144.342 154.985 141.133 145.973 135.121C136.96 129.109 129.936 120.563 125.788 110.565C121.64 100.567 120.554 89.566 122.669 78.9523C124.784 68.3385 130.003 58.5892 137.668 50.9371C145.332 43.2851 155.098 38.074 165.729 35.9628C176.36 33.8516 187.379 34.9351 197.393 39.0764C207.407 43.2177 215.966 50.2307 221.988 59.2286C228.01 68.2265 231.225 78.8052 231.225 89.6268C231.208 104.133 225.429 118.041 215.155 128.298C204.88 138.556 190.95 144.326 176.42 144.342ZM176.42 35.8764C165.772 35.8764 155.363 39.0288 146.51 44.935C137.656 50.8411 130.756 59.2358 126.681 69.0573C122.606 78.8789 121.54 89.6863 123.617 100.113C125.694 110.539 130.822 120.117 138.351 127.634C145.881 135.151 155.473 140.27 165.917 142.344C176.36 144.418 187.185 143.354 197.023 139.286C206.861 135.217 215.269 128.328 221.185 119.489C227.1 110.65 230.258 100.258 230.258 89.6268C230.242 75.3763 224.565 61.714 214.472 51.6374C204.378 41.5607 190.694 35.8925 176.42 35.8764Z" fill="#3F3D56"/>
<path d="M170.104 94.3537C168.212 88.7569 161.461 85.332 155.818 87.1067C150.939 88.6414 147.619 93.8361 147.884 98.8788C146.253 92.7197 139.974 87.9029 133.534 88.3542C126.298 88.8615 120.188 95.9277 120.741 103.149C120.486 101.255 119.592 99.5038 118.205 98.1854C116.819 96.8671 115.024 96.0603 113.116 95.8983C111.208 95.7364 109.302 96.2289 107.713 97.2945C106.123 98.3602 104.945 99.9353 104.374 101.76L104.376 101.626C103.224 100.98 101.665 102.112 101.596 103.429C101.527 104.746 102.563 105.919 103.777 106.438C104.991 106.958 106.354 106.964 107.675 106.963C124.159 106.941 140.642 106.92 157.126 106.899C160.955 106.894 165.176 106.744 167.99 104.152C170.592 101.757 171.235 97.7017 170.104 94.3537Z" fill="#E4E4E4"/>
<path d="M209.51 119.906C208.964 118.464 207.899 117.278 206.522 116.579C205.146 115.881 203.558 115.722 202.07 116.132C199.528 116.931 197.8 119.637 197.938 122.263C197.088 119.055 193.818 116.547 190.464 116.782C186.695 117.046 183.513 120.726 183.801 124.487C183.668 123.5 183.203 122.588 182.481 121.902C181.758 121.215 180.823 120.795 179.83 120.711C178.836 120.626 177.844 120.883 177.016 121.438C176.188 121.993 175.574 122.813 175.277 123.763L175.278 123.694C174.678 123.357 173.866 123.947 173.83 124.633C173.843 124.977 173.957 125.31 174.159 125.589C174.362 125.868 174.642 126.081 174.966 126.2C175.617 126.427 176.308 126.52 176.996 126.473C185.581 126.462 194.166 126.451 202.751 126.44C204.745 126.437 206.943 126.359 208.409 125.009C209.764 123.762 210.099 121.65 209.51 119.906Z" fill="#E4E4E4"/>
<path d="M187.285 77.0676C197.706 77.0676 206.154 68.6332 206.154 58.2288C206.154 47.8245 197.706 39.3901 187.285 39.3901C176.863 39.3901 168.415 47.8245 168.415 58.2288C168.415 68.6332 176.863 77.0676 187.285 77.0676Z" fill="#DBAB64"/>
<path d="M239.291 64.6684C237.4 59.0716 230.649 55.6468 225.006 57.4215C220.126 58.9561 216.807 64.1508 217.072 69.1935C215.44 63.0344 209.162 58.2176 202.722 58.6689C195.485 59.1762 189.375 66.2424 189.929 73.464C189.674 71.5695 188.78 69.8185 187.393 68.5001C186.007 67.1818 184.211 66.375 182.304 66.213C180.396 66.0511 178.49 66.5436 176.9 67.6092C175.311 68.6749 174.133 70.25 173.561 72.0743L173.564 71.9405C172.412 71.2945 170.853 72.4265 170.784 73.7435C170.715 75.0605 171.75 76.2336 172.965 76.753C174.179 77.2724 175.542 77.2789 176.863 77.2773C193.346 77.2561 209.83 77.2349 226.314 77.2137C230.143 77.2088 234.363 77.0588 237.178 74.467C239.78 72.0714 240.423 68.0164 239.291 64.6684Z" fill="#E4E4E4"/>
<path d="M202.436 94.2386L206.071 91.3364C203.247 91.0254 202.087 92.5628 201.612 93.7797C199.406 92.8652 197.005 94.0636 197.005 94.0636L204.277 96.6994C203.91 95.7211 203.272 94.8675 202.436 94.2386Z" fill="#3F3D56"/>
<path d="M155.549 122.782L159.183 119.88C156.36 119.569 155.2 121.106 154.725 122.323C152.519 121.409 150.118 122.607 150.118 122.607L157.39 125.243C157.023 124.265 156.384 123.411 155.549 122.782Z" fill="#3F3D56"/>
<path d="M147.543 73.6873L151.178 70.785C148.354 70.474 147.194 72.0114 146.72 73.2283C144.514 72.3138 142.112 73.5123 142.112 73.5123L149.384 76.148C149.018 75.1697 148.379 74.3161 147.543 73.6873Z" fill="#3F3D56"/>
<path d="M173.561 242.62C191.246 242.62 205.582 241.087 205.582 239.195C205.582 237.303 191.246 235.77 173.561 235.77C155.877 235.77 141.541 237.303 141.541 239.195C141.541 241.087 155.877 242.62 173.561 242.62Z" fill="#F0F0F0"/>
<path d="M16.3258 184.043H166.525C170.376 184.043 174.103 185.403 177.047 187.881C179.992 190.359 181.964 193.797 182.615 197.587C183.266 201.376 182.555 205.274 180.606 208.59C178.658 211.907 175.597 214.429 171.966 215.711V226.965L161.627 216.642H16.3258C11.9975 216.64 7.8472 214.921 4.78741 211.865C1.72762 208.808 0.00878906 204.664 0.00878906 200.343C0.00878906 196.021 1.72762 191.877 4.78741 188.82C7.8472 185.764 11.9975 184.045 16.3258 184.043Z" fill="#59746D"/>
<path d="M23.4004 196.539H155.641C155.929 196.539 156.206 196.425 156.41 196.221C156.614 196.017 156.729 195.741 156.729 195.453C156.729 195.165 156.614 194.888 156.41 194.684C156.206 194.481 155.929 194.366 155.641 194.366H23.4004C23.1117 194.366 22.8349 194.481 22.6308 194.684C22.4267 194.888 22.312 195.165 22.312 195.453C22.312 195.741 22.4267 196.017 22.6308 196.221C22.8349 196.425 23.1117 196.539 23.4004 196.539Z" fill="white"/>
<path d="M23.4004 204.689H155.641C155.929 204.689 156.206 204.575 156.41 204.371C156.614 204.167 156.729 203.891 156.729 203.602C156.729 203.314 156.614 203.038 156.41 202.834C156.206 202.63 155.929 202.516 155.641 202.516H23.4004C23.1117 202.516 22.8349 202.63 22.6308 202.834C22.4267 203.038 22.312 203.314 22.312 203.602C22.312 203.891 22.4267 204.167 22.6308 204.371C22.8349 204.575 23.1117 204.689 23.4004 204.689Z" fill="white"/>
</svg>
